<svg id="Layer_1" data-name="Layer 1" xmlns="http://www.w3.org/2000/svg" viewBox="0 0 800 800"><defs><style>.cls-1{fill:#fd0;}.cls-1,.cls-2,.cls-4,.cls-6,.cls-7{fill-rule:evenodd;}.cls-2{fill:#ea5b0c;}.cls-3{fill:#d7490c;}.cls-4{fill:#ef7d00;}.cls-5,.cls-6{fill:#fff;}.cls-7{fill:#164194;}</style></defs><path class="cls-1" d="M120.09,666c14.44-176.38,15.39-344.2,0-501.53,164.27,20.4,342.62,28,559.8,0-18.12,183.43-16,348.68,0,501.53-186.36-13.72-373-14.6-559.8,0"/><path class="cls-2" d="M10,400C157.28,300.44,288.38,198.78,400,94.59c98.59,102.1,217,204,390,305.44C634.74,501.82,507.7,603.62,400,705.41A3006.39,3006.39,0,0,0,10,400"/><path class="cls-3" d="M581.93,454.6h0a23.31,23.31,0,0,1-15.12-5.42c-8.85-7.4-11.72-17.75-7.84-28.36C564,407,579.5,395.7,593.6,395.7a24.35,24.35,0,0,1,14.79,4.79c8.06,5.95,11.09,14.3,8.25,22.85a24.31,24.31,0,0,1-3.62,6.83,5.19,5.19,0,0,1,.1,3.48C609.87,443.37,595.53,454.6,581.93,454.6Zm5.6-47.9c-8.29,2.48-16.27,9.43-19.18,17.48-2.45,6.75-.82,12.56,4.92,17.33a13.33,13.33,0,0,0,5.45,2.8,19.28,19.28,0,0,1-4.26-4c-4.4-5.36-5-12.55-1.62-19.63A28.27,28.27,0,0,1,587.53,406.7Z"/><path class="cls-4" d="M608.39,432.07c-6.27,6.09-20.78,16.43-30,5.15-10.42-12.83,11.9-34.31,23.36-24.63,12.82,10.6-6.17,23.83-12.14,16.16-4.2-5.35,3.58-11,7.57-7.77,1.23,1,1,2.64-.1,2.89-1.79.4-4.31-.21-2.75,2.37s5.23,2.78,7.72-.75,1-7.4-2.06-9.44c-9.49-6.58-24.34,7.14-16.16,16.42,12,13.66,42.82-12.33,21.64-27.93-21-15.56-59.75,20.49-35.39,40.82,14,11.71,34.94-3.1,38.33-13.29"/><path class="cls-3" d="M212.08,629.83c-18,0-35.23-9.52-47.24-26.06-15.69-21.69-17.17-50.57-4.31-83.41,19.56-50.11,69.73-99.18,109.56-107.2,11.59-2.32,19.83-.52,24.65,5.2s4.33,13.84,3.54,18.11c-.47,2.51-2.52,5.47-7.58,12.46-6.65,9.18-16.68,23-17.82,31.72-.61,4.53.27,6,.66,6.56.75.79,2.42.94,3.71.94a33.09,33.09,0,0,0,6.28-.78c3.62-.78,5.51-4,9.23-10.77,1.16-2.1,2.5-4.58,4.08-7.13,1.81-3,3.73-6.94,6-11.57,5-10.71,11.41-24,22.25-36.44,9-10.41,23-16.61,37.37-16.61,11.61,0,21.89,4.39,28.11,11.82,6.38,7.67,7.45,18.12,2.83,28-4.89,10.46-14.56,17.13-24.58,17.13a23.08,23.08,0,0,1-4.71-.47c-9.85-2.09-14.95-7.46-16.93-13.25-4.05,9.11-8.57,22.12-13.19,41-8.43,34.46-2.25,64.88,18.44,90.38,3.77,4.68,8.14,6.78,12,8.63,4.84,2.32,11.41,5.41,10.06,13.85-.87,5.48-8.53,18.76-22.35,18.76-9.3,0-19.33-5.88-29.86-17.6-34.06-37.69-8-121.91,4.94-151.15,2.07-4.64,1.71-7.57,1.24-8.45-.8.3-2.86,1.67-5.15,6-.69,1.32-2.29,5.21-4.1,9.78-4.47,11.14-11.19,28-18.12,40.13A34.88,34.88,0,0,1,271,517.33c-8.29,0-15.48-3.32-19.68-9-3.05-4.22-5.89-11.67-2.2-23.11,2.83-8.77,7.77-18.08,12.13-26.32,2.82-5.3,5.47-10.3,6.44-13.19.55-1.8.59-3.22.07-3.89s-2-1.26-3.83-1.26a19.88,19.88,0,0,0-9.19,2.73c-32.57,17.7-64.5,80.69-67.87,119.92a49.9,49.9,0,0,0,.23,8.87,32.49,32.49,0,0,1,5.39-13.23c7.44-10.56,18-16.45,29.78-16.45,14.32,0,27.66,8.62,34,21.9,7.24,15.2,3.87,33.2-9.34,49.49C238.69,624,226,629.83,212.08,629.83Zm67.08-207.71a41.3,41.3,0,0,0-7.09.81c-36.93,7.46-83.75,53.72-102.26,101-8.08,20.64-14.08,50.27,3.09,73.9,10.11,14,24.43,22.06,39.18,22.06,10.88,0,20.76-4.5,27.11-12.36,14.58-18.06,11.28-32.13,8-39-4.61-9.77-14.65-16.29-25-16.29-5.95,0-14.54,2.16-21.66,12.35a22,22,0,0,0-1.4,22.84c3.13,6,8.49,9.79,14,9.79h0a8.13,8.13,0,0,0,2.26-.22,17.42,17.42,0,0,0,14.24-14.65c.28-2.8-.23-6.58-4.42-8.26a9.9,9.9,0,0,0-3.84-.88,2.68,2.68,0,0,0-2.49,1.24,8.1,8.1,0,0,0-.87,2.24h.54a6.68,6.68,0,0,1,5.56,3.18,10.07,10.07,0,0,1,1,9.37,9.79,9.79,0,0,1-6.83,6c-6.72,1.56-12.34-1.47-14.76-7.69-3.18-8-.52-20,5.62-25.77a21,21,0,0,1,14.34-5.68,22.35,22.35,0,0,1,18.12,9.51c7,10.34,8,22.32,2.76,32.73-5.48,11-17.23,18.47-29.82,19.11-8.87.41-16.91-3.09-23.37-10.12-10.92-11.88-15.43-31.65-14.33-45.1,3.56-41.79,36.92-108.2,73-127.74a29.75,29.75,0,0,1,14-3.92c5.2,0,9.45,1.87,11.93,5.29,1.73,2.43,3.35,6.56,1.31,12.87a51.63,51.63,0,0,1-2.28,5.41c2.61-3.93,5.32-7.71,7.79-11.08s5.26-7.31,5.89-8.62c.39-2.2.83-7-1.42-9.71C285.63,423,283,422.12,279.16,422.12ZM321.4,502.3a227.44,227.44,0,0,0-4.16,22.53c-3.14,22.95-3.52,54,12.4,71.63,8.46,9.36,16.23,14.31,22.48,14.31,8.31,0,12.25-9.1,12.54-10.36a2.1,2.1,0,0,0,0-.69c-.37-.62-2.89-1.78-4.56-2.56-4.34-2.11-10.31-4.93-15.52-11.35C321.55,557.35,318.34,526.67,321.4,502.3ZM206,606a16.83,16.83,0,0,0,8.1,1.48,25.53,25.53,0,0,0,18.28-9,27,27,0,0,1-15.34,8.32,19.6,19.6,0,0,1-3.94.37h0A21.2,21.2,0,0,1,206,606Zm57.7-130.26a102.16,102.16,0,0,0-5.2,12.45c-1.86,6-1.62,10.83.81,14.14,2.27,3.14,6.5,4.94,11.6,4.94a25.31,25.31,0,0,0,21.45-12.71l.64-1.11a16.81,16.81,0,0,1-7.58,3.66,41.8,41.8,0,0,1-8.21,1c-4.86,0-8.65-1.52-11.16-4.42-2.9-3.26-3.95-8.1-3.1-14.37A30.65,30.65,0,0,1,263.74,475.76Zm92.35-33.35c.07,4.53,3.71,7.79,10.05,9.14,6.88,1.47,14.51-3.32,18.18-11,1.42-3,4.09-10.76-1.47-17.49-4.33-5.21-11.77-8.14-20.43-8.14-11.35,0-22.77,5-29.84,13.12-1.58,1.79-3.05,3.64-4.46,5.46h.52a9.43,9.43,0,0,1,8,4.48,11.9,11.9,0,0,1,1.87,5c7.69-16.8,16.13-25.2,25.14-25.2a12.61,12.61,0,0,1,3.46.47,16.12,16.12,0,0,1,12.1,17.69c-.9,6.83-6.08,11.51-12.83,11.51a10,10,0,0,1-1.84-.18C360.23,446.73,357.48,444.83,356.09,442.41Z"/><path class="cls-4" d="M213.76,582.81c2.41,3.74,3.73-3.69,6.26,0a5.05,5.05,0,0,1-2.78,7.68c-13,2.94-12-18.09-4.65-24.92,8.42-7.82,20.12-4.24,24.92,2.94,14,20.77-2.26,43-23.17,44-23.69,1.17-34-31.6-32.46-49.77,3.42-40,35.94-105.06,70.38-123.84,12-6.49,23.87-3.13,20.1,8.33-2.59,7.82-13.9,25.05-18.56,39.56-9.54,29.63,29.42,34.1,43,10.25,9.77-17.24,19.54-44.88,22.06-49.78,8.2-15.68,19.6-8.32,12.93,6.74-12.34,28-37.62,110.61-5.82,145.81,29.24,32.43,42.85,6.31,43.63,1.42,1.42-8.92-11.44-6.71-21.06-18.54s-32-43.11-19.39-94.74c13.59-55.59,28-67.29,36.72-64.94,12.09,3.32,10.93,20.64-.71,19.29-8.11-.9-5.28-8.36-1-7.88,2.07.21,1.71,2.51,2.41,2.57,3.43.27,5.35-6.78-.27-8.15-14.75-3.52-24.5,22.66-1.15,27.68,17.76,3.79,34.34-21.32,21.59-36.61s-42.65-12.62-57.82,4.84-21.43,37.13-27.79,47.36-8.67,18.65-16.57,20.21-18.58,2.76-16.58-12.21S292.58,440,293.4,435.58s3.16-22.69-22.33-17.54c-59.56,12-146.09,122.18-102.21,182.74,21.69,30,57.62,30.41,74.16,9.94,36.77-45.55-20.72-85.68-46.53-49-12.76,18.16,1.58,43.44,19.72,40.26s25.09-26.77,10.88-32.5-15.69,9.65-13.33,13.34"/><path class="cls-3" d="M522.21,624.31a43.67,43.67,0,0,1-8.15-.8c-10.76-1.94-18.67-6.82-23.53-14.65-12-19.22-2.89-50.84,5.88-81.45,6.59-23.07,14.08-49.12,4.89-53.58a32.81,32.81,0,0,0-14.36-3.72c-8.33,0-15.48,4.61-21.14,13.8-14.61,23.58-14.56,67-6.76,82.77a5,5,0,0,1-.18,4.79,5.14,5.14,0,0,1-4.17,2.37c-5.82.1-12.43,1.52-17.3,2.52-2,.38-3.65.77-4.95.94a4.94,4.94,0,0,1-5.65-4,55.58,55.58,0,0,1-.65-5.58c-8.08,7.32-27.08,17.56-45.66,17.56-13,0-24-5.1-31.69-14.54-11.58-14.25-11.45-27.12-9.32-35.41,3.84-14.67,16.23-25.65,26.26-29.73a9.69,9.69,0,0,1-1.16-.59c-8.83-4.72-13-16.11-10.13-27.73,3.46-14.08,17-23.89,33.09-23.89a34.72,34.72,0,0,1,20.54,6.45c21.17,15.4,24.53,42.28,24.13,69.92,4.49-20.55.81-62.35-1.28-72.7a5,5,0,0,1,2.94-5.58c1.23-.57,3.15-1.11,5.77-2,4.22-1.38,10-3.22,16.34-5.8a5,5,0,0,1,4.68.48,5.17,5.17,0,0,1,2.14,4.15,57,57,0,0,1-1,8.36c11.48-8.3,24-12.56,37.5-12.56a64.36,64.36,0,0,1,14.12,1.59c11.09,2.31,18.91,8,23.24,16.75,9.44,19.07-.75,46.43-7.68,61-1.49,3.1-3.82,7.13-6.53,11.92-5.09,8.92-12.06,21.1-15.59,31.3,4.33-5.41,11.82-9.35,23.42-9.39,15.55,0,26.28,12.56,26.28,30.5a39.27,39.27,0,0,1-8.37,24.59C541.87,620.15,532.89,624.31,522.21,624.31Zm-27.4-40.92c-.24,8,.94,15,4.2,20.23s8.83,8.64,16.78,10.09c10.49,1.87,19.13-.81,24.7-7.63a28.75,28.75,0,0,0,6.09-17,23.54,23.54,0,0,1-2.85,8.6c-3.87,7.15-11,12-15.94,13.08a28.1,28.1,0,0,1-5.58.68,26.31,26.31,0,0,1-19-7.93C498.4,598.55,495.58,591.8,494.81,583.39Zm24-13.71A12.1,12.1,0,0,0,512,579.76c0,.43-.06.83-.06,1.26a15.09,15.09,0,0,1,2.92-7.23A23,23,0,0,1,518.84,569.68Zm-137-56.93a33.45,33.45,0,0,0-12.19,2c-7.82,3.08-17.71,12.23-20.49,23-2.25,8.89.19,17.81,7.37,26.57,5.9,7.27,13.95,10.89,24,10.89,18.24,0,36.92-11.77,40.61-16.55.5-.68,1-1.31,1.42-1.83C414.84,562.16,404,568,392.3,568a33.3,33.3,0,0,1-22.32-8.5c-8.36-7.31-11.23-16.66-7.85-25.71,4.18-11.29,16.89-19.27,31.2-19.78A57.09,57.09,0,0,0,381.8,512.75Zm54.1,39.83a6.61,6.61,0,0,1,.22,1.7,102.69,102.69,0,0,0-.07,12.15c3.32-.69,7.32-1.54,11.46-2.07-7-22.46-4.49-62.69,9.83-85.69,7.56-12.21,17.77-18.6,29.6-18.6a43.29,43.29,0,0,1,18.71,4.77c16.7,8.09,9.14,34.61.35,65.23-3.23,11.19-6.6,23-8.8,34.11,3.78-11.29,10.93-23.82,16.6-33.74,2.61-4.52,4.86-8.44,6.15-11.25,10.5-22,13.28-41.12,7.76-52.25-2.93-6-8.27-9.76-16.35-11.44-19.43-4.21-37.38,1.64-52.66,17.05a4.93,4.93,0,0,1-5.62,1,4.84,4.84,0,0,1-2.89-4.89c.26-4,1-8.59,1.62-12.66v0c-3.47,1.24-6.56,2.2-9.13,3-.42.1-.83.26-1.26.4,2.54,17.29,6.06,63.87-2.42,81.47l-.08-.11c-1.13,2.48-3.83,5.41-6.6,8A5.18,5.18,0,0,1,435.9,552.58Zm-41-28.69c-12.14,0-21,6.65-23.48,13.26-1.89,5.11-.15,10.19,5.07,14.72A23,23,0,0,0,392.3,558c13.93,0,28.08-11.29,34.46-17.65a5,5,0,0,1-3.49-1.79C413.1,526.4,402.24,523.89,394.93,523.89Zm15.29-7a49.85,49.85,0,0,1,12,6.89c-.18-22.7-3.88-44.08-20.06-55.84a24.89,24.89,0,0,0-14.65-4.58c-9.37,0-20.68,5.17-23.4,16.34-1.76,7.1.41,14.07,5.15,16.55a17.13,17.13,0,0,0,8.19,2.2c6.23,0,10.71-3.72,11.37-9.6.21-2,0-3.53-.84-4.36a6.92,6.92,0,0,0-4-1.64,9.84,9.84,0,0,1,1.4,8.77,8.83,8.83,0,0,1-8.51,6.25,11.88,11.88,0,0,1-6.63-2.19,12.47,12.47,0,0,1-5.09-8.53,18.38,18.38,0,0,1,3.94-13.92,19.36,19.36,0,0,1,15.39-7.28A21.62,21.62,0,0,1,397.25,470c11.08,8,15.65,28.32,15.17,35.3a35.41,35.41,0,0,0,0,3.7c.1,2.83.19,5.44-1.8,7.48C410.48,516.58,410.34,516.69,410.22,516.84Zm-18.7-13.29a67.27,67.27,0,0,1,10.9,2.38c0-.44,0-.91.08-1.38.2-2.95-1.1-9.67-3.66-15.75,0,.34-.08.73-.08,1.15A20.62,20.62,0,0,1,391.52,503.55Z"/><path class="cls-4" d="M380.59,478c-2.31.7-6.61,3-1.84,6.52s1.1,11.59-5.68,7c-4.35-2.86-3.82-10.53-.05-15.17,5.67-7,15.39-6.55,21.3-2.24,9.25,6.67,13.54,24.91,13.15,30.88s1.4,10.75-3.64,6.93c-1.75-1.25-21.89-7.36-36-1.68S330.18,540,352.65,567.54s65.66,3,72.37-5.83,5.84-8.58,6.1-7.72c-.31,4.57-.31,13.44.55,18.36,4.23-.61,14.26-3.36,22.93-3.47-14.29-28.87-3.77-125,48.9-99.53,30.89,15-53.12,137.69,11.43,149.3,44.23,7.92,47.3-56.49,15.41-56.39s-26.21,33.1-12.36,35.62c23.94,4.31,20.69-19.26,11.74-20.75s-10,3-7.73,7.37c1.27,2.25,6-2.84,5.77,1.21s-7.66,7.67-10.6-1.64,17.17-22.26,23.24-5.57c5.76,15.86-7.88,26.17-13.69,27.49-10.3,2.31-27.88-3-27.1-29,.53-16.63,19.5-44.42,24.85-55.66,13.72-28.83,19.46-64.05-12.05-70.82S461.22,462.9,455.12,469c.55-7.4,2.75-17.28,2.72-20.7-10.24,4.16-19.21,6.57-22,7.78,2.45,11.86,7.27,64.83-1.31,82.57,0,2-34.88,39.81-61.24,17s22.52-57.72,53.85-20.26c.74-24.95-.15-55.69-22-71.48-15.36-11.22-41.1-4.84-45.85,14.53-2.36,9.61,1,18.65,7.63,22.21,12.38,6.59,25.5.86,26.88-11.28s-10.88-12-13.19-11.4"/><path class="cls-3" d="M564.43,590H562.5a5.27,5.27,0,0,1-3.53-1.73,5.09,5.09,0,0,1-1.16-3.73c0-.27,2.26-22.11,4.36-52.8S566,462.94,566,462.53a5,5,0,0,1,3.75-4.56l20.48-5.33a14.48,14.48,0,0,1,3.45-.41,9.33,9.33,0,0,1,7.16,2.94c1.27,1.37,2.72,3.9,2.32,8.11-.11.81-8.67,85.18-19.48,115.29a16.63,16.63,0,0,1-9.78,10.13.76.76,0,0,1-.32.11A32.49,32.49,0,0,1,564.43,590Zm11.4-123.28c-.47,10.35-2,40.5-3.73,65.72-1.46,21.59-3,38.91-3.83,47.36a10.15,10.15,0,0,0,2.05-.36,6.6,6.6,0,0,0,4-4.26c9.12-25.26,17.39-96.53,18.95-112.82v-.05a1,1,0,0,0-.45.05Z"/><path class="cls-4" d="M562.81,585s2.22-21.85,4.36-53S571,462.74,571,462.74l20.51-5.26s7.4-2.1,6.69,5.26c-.66,7.14-9.11,86-19.2,114.07a11.38,11.38,0,0,1-7,7.26c-3.67,1.22-9.23.9-9.23.9"/><path class="cls-3" d="M633.53,587.48c-12.26,0-22.5-4.19-30.33-12.56-11.71-12.53-12-24.94-10.19-33.23,3.15-14.13,14.63-26.11,24.68-31.09-.52-.43-1.05-.81-1.56-1.22-7.4-6.15-10.25-16.92-7.52-28.16,3.46-14.06,17.07-23.91,33.15-23.91a34.84,34.84,0,0,1,20.48,6.43c22.63,16.49,24.9,46.11,24,75.73a4.94,4.94,0,0,1-8.77,3c-10.19-12.1-21-14.71-28.36-14.71-12.14,0-21,6.76-23.46,13.32-1.92,5.15-.16,10.19,5.08,14.7a24.22,24.22,0,0,0,16.59,6.25c16.14,0,35.29-13,53.9-25.62,14.36-9.71,27.9-18.89,40.3-22.37a52.36,52.36,0,0,1,14-2.12c22.12,0,32.71,16.67,33,32,.53,22.49-17,35.1-34.65,35.93-16.75.84-26.38-12.2-26.92-24.42a22.31,22.31,0,0,1,6.54-17.08c-13.38,4.42-30.72,15-51.19,31.21C676,574.57,655,587.48,633.53,587.48Zm2.1-70.75a32.56,32.56,0,0,0-11.82,2c-6.86,2.72-18.25,12.59-21.06,25.13-1.88,8.57.69,16.72,7.69,24.21,5.89,6.33,13.69,9.47,23.09,9.47,11.11,0,23-4.47,31.75-9a53.64,53.64,0,0,1-18,3.46h0a34.76,34.76,0,0,1-23.17-8.66c-8.37-7.25-11.23-16.65-7.84-25.74,4.11-11.08,16.51-19,30.6-19.76A69.32,69.32,0,0,0,635.63,516.73Zm104,29.68a12.85,12.85,0,0,0-2.68,8.57,15.54,15.54,0,0,0,16.48,15c17.7-.91,25.42-13.93,25.17-25.74-.28-11-7.51-22.27-23.09-22.27a42.82,42.82,0,0,0-11.28,1.67,62.11,62.11,0,0,0-10.55,4.31c13.34-3.72,23.58-1.95,30.63,5,6.09,6.1,8.34,14.87,5.72,22.42a15.36,15.36,0,0,1-12.86,10.56,18.87,18.87,0,0,1-2.37.1c-9.82,0-15.6-6.39-16.29-12.79A12.49,12.49,0,0,1,739.62,546.41Zm-75.33-25.68a45.16,45.16,0,0,1,12.13,7c-.22-22.81-3.86-44.14-20-55.89a24.67,24.67,0,0,0-14.61-4.58c-9.41,0-20.71,5.08-23.46,16.33-1.85,7.51-.24,14.51,4.2,18.11,1.56,1.26,4.47,2.06,7.64,2.06,4.66,0,12.77-1.84,13.66-9.08.36-2.73,0-4.73-1.1-6a7.3,7.3,0,0,0-4.47-1.95,9.71,9.71,0,0,1,1.39,8.78,8.82,8.82,0,0,1-8.54,6.24,12,12,0,0,1-6.64-2.21,12.5,12.5,0,0,1-5.06-8.52,18.54,18.54,0,0,1,3.93-14,19.31,19.31,0,0,1,15.4-7.26A21.23,21.23,0,0,1,651.45,474c11.85,8.56,15,29.85,15.2,34.71a23.88,23.88,0,0,0,.22,3.05c.25,3,.52,5.8-1.54,8.1A10.87,10.87,0,0,1,664.29,520.73Zm-17-12.82a64.09,64.09,0,0,1,9.39,2.15,9.93,9.93,0,0,1,0-1.08,54.14,54.14,0,0,0-2.89-13.51c0,.1,0,.27-.08.47A18.71,18.71,0,0,1,647.32,507.91Z"/><path class="cls-4" d="M634.76,481.92c-2.26.66-6.61,3-1.79,6.5s1.06,11.56-5.71,7.05c-4.34-3-3.84-10.62-.06-15.24,5.67-7.05,15.4-6.56,21.3-2.33,9.27,6.79,13,25.06,13.14,31s1.9,9.89-3.6,7c-1.94-1-21.9-7.41-36.08-1.78s-38.41,32.67-15.14,57.45,63.73,1.06,72.38-5.83c22-17.43,63.76-46.89,81.58-29.25,9.08,9,5.83,23.42-4.15,24.47-7.7.81-12.66-3.51-13.13-8.18-.62-5.73,4.39-8.78,8.34-8.57,3.6.27,4.58,4.94.12,5-1.31,0-2.37-.48-2.85,1.49-.76,3.08,1.06,6.44,5.8,6.49,8.18.15,9.65-8.52,7.17-13.55-2.63-5.43-9.1-7.06-12.63-6.72-27,2.37-20.5,39.27,4.22,38,44-2.13,38.67-69.94-10.79-56.1-33.94,9.58-83.08,68.82-115.47,40.78-26.31-22.8,22.53-57.68,53.86-20.29.76-24.89-.14-55.61-22-71.53C644,456.64,618.22,463,613.43,482.37c-2.3,9.68.11,18.34,5.89,23.18,7.44,6.26,27.69,3.83,29.45-10.3s-11.7-14-14-13.33"/><path class="cls-3" d="M154.5,423.83c-16.63,0-32.95-7.37-48.44-21.86-19.46-18.18-28.26-43.44-24.69-71,5-38.95,32.68-76.52,72.33-98C174.36,221.76,193,216,208.94,216c22.95,0,34.13,11.56,38.73,18.38,7.67,11.47,8.65,24.44,2.63,35.63-6.7,12.61-20.93,20.44-37.1,20.44H212c-10.3-.28-18.64-4.42-23.53-11.83a26.46,26.46,0,0,1-2.27-24.37,27.74,27.74,0,0,1,10.89-13.2c-15.19,4.36-30.25,15.45-37.29,22-16.16,14.76-52.09,53.9-37.29,97.41,5.63,16.57,19.47,34.27,41.43,34.27a44.87,44.87,0,0,0,5.12-.36,13.56,13.56,0,0,1,1.4-.22c-8.49.06-16.88-5.21-21.38-13.44-4.71-8.8-4.12-18.77,1.63-27.48a36.87,36.87,0,0,1,30.72-16.92A31,31,0,0,1,211,356.64c5.07,13.23,3,33.94-17.88,52.1C182,418.45,168.31,423.83,154.5,423.83ZM208.94,226c-14.28,0-31.28,5.31-50.51,15.76-36.29,19.63-62.66,55.21-67.18,90.5-2.18,17.23-.21,42.07,21.64,62.51,13.57,12.65,27.59,19.12,41.61,19.12,11.38,0,22.76-4.48,32-12.55,11.16-9.78,21-25.65,15.1-41.13a21,21,0,0,0-20.22-13.88A27.1,27.1,0,0,0,159,358.68c-5,7.61-2.88,14.07-1.15,17.18,2.74,5.14,8,8.56,12.9,8.26,3-.22,6.88-1,8.49-3.58a5.52,5.52,0,0,0,.38-4.68c-.05-.11-.1-.22-.16-.33a14.43,14.43,0,0,1-6.25,1.55,9.5,9.5,0,0,1-9.39-7.48,13.85,13.85,0,0,1,7.37-15.16,23.64,23.64,0,0,1,10.59-2.63,19.6,19.6,0,0,1,17,9.66,21.68,21.68,0,0,1,0,21.69c-2.33,4.26-11.33,18.55-28.31,21a38.24,38.24,0,0,1-6.56.48c-17.83,0-40.56-10.77-50.87-41-16.67-49.06,22.39-91.87,40-108,10.75-9.81,34.71-26.51,56.4-26.51,11.75,0,21.26,5.07,27.59,14.7a20.35,20.35,0,0,1,1,21.37c-4.4,8.15-13.83,13.93-22.95,13.93a21.74,21.74,0,0,1-2.55-.21,16.22,16.22,0,0,1-14.7-15.76,12.46,12.46,0,0,1,3.28-9.15,10.58,10.58,0,0,1,7.61-3.11,10.2,10.2,0,0,1,9.21,5.27,8.31,8.31,0,0,1,.41,6.05c4.81-.06,6.25-3.12,6.55-5.58.22-1.57.85-6.35-8.81-9.18a16.38,16.38,0,0,0-4.76-.7c-7.86,0-13.63,5.56-15.84,11.13a16.82,16.82,0,0,0,1.36,15.24c3,4.56,8.39,7.1,15.43,7.36,12.9.25,24.18-5.58,29.31-15.17,4.26-8,3.5-17-2.13-25.49C235.87,234.73,227.27,226,208.94,226ZM180.09,365.2c2.17,0,6.18.88,8.67,6.77a14,14,0,0,1,1.16,6.58c.06-.11.11-.11.14-.21a11.91,11.91,0,0,0,.13-11.77c-2.84-4.79-8.64-6.17-14.55-3.2a4.1,4.1,0,0,0-2.15,3.67,6.64,6.64,0,0,0,2.38-.8A9.87,9.87,0,0,1,180.09,365.2Z"/><path class="cls-4" d="M212.48,262.66c5.52-6.89-9.93-11-9.74.49A11.33,11.33,0,0,0,213.09,274c13,1.53,29-13.18,19.75-27.36-18.21-27.9-59.91-2.54-76.46,12.7-23.31,21.38-52.93,60.52-38.61,102.65,10.2,30,33.6,40,52,37.28,12.19-1.82,20.65-11.13,24.69-18.58,7.61-13.93-5.26-29.72-21-21.79-7.54,3.76-6.79,17.47,4.64,11.79,2.78-1.3,4.78,0,6.14,3.27,2,4.52.86,14.18-13.14,15.12-13.31.9-27.09-16.54-16.23-33.15,12.95-19.79,42.86-20.11,51.48,2.42,6.36,16.72-2.78,34.67-16.49,46.71-18.06,15.75-48.3,23.16-80.34-6.72-48.18-45-18.94-125.56,46.59-161.07,51.19-27.71,77.66-14.75,87.48-.08,15.57,23.27-3,49-31.47,48.25-19.7-.46-26.2-16.89-21.27-29.34,3.85-9.67,14.63-16.92,26.63-13.4,7,2.1,13.45,6.34,12.36,14.65-.74,5.68-5.16,11.2-15,9.65-3.06-.46-4.12-2-2.35-4.35"/><path class="cls-3" d="M250.51,409.24a44.08,44.08,0,0,1-28.92-10.95c-13.91-11.87-16.09-24.58-15.44-33.15,1.11-14.76,10.93-27.58,19.91-33.55a20.44,20.44,0,0,1-9-5.67c-4.73-5-7.09-12.32-6.56-20.49,1.16-18.86,18.7-30.06,35-30.06a33.61,33.61,0,0,1,14.65,3.27c20.62,9.91,29.41,30.87,34.35,54.26-5.24-30.37,1.68-96.18,2-99.11a5.07,5.07,0,0,1,.25-1.22c1.89-5.21,12.3-10.66,30.94-16.12a5,5,0,0,1,4.94,1.3,4.89,4.89,0,0,1,1.21,4.94c-8.4,26.63-12.38,60.73-13.94,77.47a45.93,45.93,0,0,1,21.28-5.5c16.25,0,33.77,10.66,34.37,40.55.73,40.11-14.13,62.39-44.23,66.22-1.74.16-3.42.32-5,.32-15.68,0-25.95-9.45-31.48-16.58C286.26,397.89,269,409.24,250.51,409.24Zm4-74.77c-5.34,0-15.29.7-22.33,5-7.19,4.52-15.21,15.26-16.06,26.37-.67,9.09,3.38,17.49,12,24.84a33.7,33.7,0,0,0,22.4,8.55c17.88,0,34.95-13.56,39.06-25.72a5,5,0,0,1,9.24-.49c.37.74,9.14,18.71,27.44,18.71a28.36,28.36,0,0,0,3.73-.27c15.68-2,36.4-10,35.54-56.1-.4-19.57-9.25-30.78-24.39-30.78-8.1,0-17,3.47-23.87,9.19a5,5,0,0,1-8.18-4.09c.11-1.93,2.84-44.7,12.53-80.88-7.33,2.67-13.5,5.44-15.33,7.14-.94,8.71-6,61.51-2.8,89.81,5.91-6.3,15.21-13.48,26.9-13.48A28.92,28.92,0,0,1,340.2,314c9.08,3.25,15,11.14,16.6,22.22,2.31,16-4.9,36.25-15.73,44.12a26.32,26.32,0,0,1-15.38,5.13h0c-10.5,0-22.46-7-27.88-22C289.72,373.6,275,388.2,257.38,388.2h0a33,33,0,0,1-16.92-4.77c-10.2-6.06-14.65-15.76-11.86-26,3-11.14,13.87-20.05,26.79-22.9A5.62,5.62,0,0,0,254.46,334.47Zm9.81,9c-13.47,0-23.83,8.45-26,16.65-1.6,5.89.91,11,7.31,14.72a22.77,22.77,0,0,0,11.82,3.46h0c15,0,28.41-15.29,34.76-23.8a4.7,4.7,0,0,1-3-1.15C281.37,346.92,272.8,343.45,264.27,343.45Zm36,3a5.08,5.08,0,0,1,4.95,4.49c1.84,16.84,11.94,24.55,20.51,24.55a15.79,15.79,0,0,0,9.46-3.19c7.2-5.22,13.72-21.17,11.77-34.67-1.05-7.45-4.45-12.22-10.08-14.23a19.17,19.17,0,0,0-6.46-1.2c-14.49,0-25.36,17.79-25.48,17.95a5,5,0,0,1-4.88,2.47,5.08,5.08,0,0,1-4.2-3.63c-.21-.73-.39-1.47-.58-2.3.68,3.63,1.28,7.25,1.87,10.88A5,5,0,0,1,300.23,346.49Zm-27.79-12.18a48,48,0,0,1,13,4.62c-4.25-22.32-11.65-42.65-29.67-51.37a24.22,24.22,0,0,0-10.34-2.25c-11.72,0-24.28,7.72-25.07,20.68-.31,5.41,1.08,10.09,3.89,13.1,3.84,4.08,10,4.68,17.23,1.61,5.36-2.31,6.52-6.88,5.77-10.34-.46-2.48-2.2-5.35-5.35-5.35a8.89,8.89,0,0,0-1.68.15,9.86,9.86,0,0,1,3.15,9.56,8.9,8.9,0,0,1-8.92,7,12.49,12.49,0,0,1-5.15-1.17,12.07,12.07,0,0,1-6.51-7.4,18.59,18.59,0,0,1,1.36-14.43,19.76,19.76,0,0,1,17.75-10.3,21.41,21.41,0,0,1,9.35,2.11c12.34,5.93,20.49,25.09,21.25,32a28.67,28.67,0,0,0,.67,3.62C273.75,329,274.39,331.84,272.44,334.31Zm-18-9.82a71.36,71.36,0,0,1,8.32.53c0-.43-.12-.91-.16-1.42-.32-2.64-2.27-7.87-5.2-12.92a19,19,0,0,1-4.54,13.87C253.42,324.55,254,324.49,254.46,324.49Z"/><path class="cls-4" d="M236.29,301.43c-2.15,1-5.92,4.14-.62,6.72s3.19,11.16-4.3,7.87c-4.83-2.15-5.68-9.7-2.81-15,4.33-7.92,14-9.23,20.56-6,10.29,4.94,17.81,22.11,18.44,28s3.34,10.4-2.31,7.58c-2-1-22.88-3.36-35.77,4.7s-31.68,36.1-4.64,59.21,62.75.42,69.45-19.34c0,0,11.45,24.48,36.33,21.28s40.62-19.76,39.86-61.15S334.16,293.08,314,310.05c0,0,3.15-51.32,15-88.82,0,0-25.67,7.52-27.68,13,0,0-8.27,77.8-.76,103.43,0,0,15.79-26.79,37.91-18.9s14.17,47-.43,57.61-35.12.31-37.87-24.9c0,0-27.23,45.38-57.26,27.63s11.88-60.77,49.38-29.62c-3.72-24.64-10.11-54.67-34.43-66.39-17.1-8.24-41.28,2.67-42.47,22.57-1,16,10.61,27,28,19.6,16.43-7,8.18-31.35-7.2-23.84"/><path class="cls-3" d="M414.53,408.59c-17.28,0-30.89-8.47-38.3-23.85-9.6-20.07-6.62-48.95,6.83-65.76,16.07-20.12,33.09-24.32,44.53-24.32a39.25,39.25,0,0,1,18.19,4.16,25,25,0,0,1,12.68,19.57c.92,9.89-4,19.66-13.81,27.52-1.5,1.22-3,2.32-4.53,3.32a25.52,25.52,0,0,1,3.25,1.47c10.89,6.1,15.8,16.42,13.2,27.79-3.71,16.17-20.52,29-39.06,30-1,.06-2,.11-3,.11Zm13.06-104.36c-9.36,0-23.36,3.57-37.06,20.69-11.15,14-13.72,39-5.68,55.62,4.06,8.44,12.51,18.5,29.68,18.5h0c.81,0,1.62-.05,2.46-.11,15.87-.85,27.84-12.14,30.25-22.61,1.1-4.76.7-11.38-7.1-16.43a13.52,13.52,0,0,1,1,1.16c3.47,4.2,4.69,10.23,3.36,17.08-2.14,11.29-12.33,18.79-25.31,18.79a40.5,40.5,0,0,1-15.6-3.36c-21.7-9.29-9.88-40.45-9.35-41.69a4.66,4.66,0,0,1,2.73-2.75,4.9,4.9,0,0,1-.61-2.2c0-.64-.28-14.83,11.59-28.1,8.31-9.35,15.33-11.34,19.73-11.34a12.19,12.19,0,0,1,11.58,7.34c2.53,5.72.94,12.7-4.13,18.33-9,9.94-16.89,13.5-24.82,16,7.57-.56,18.63-2.89,28.34-10.71,7.32-5.89,10.87-12.44,10.24-19.15a15.31,15.31,0,0,0-7.67-12A29.45,29.45,0,0,0,427.59,304.23ZM402,358.68c-1.9,6.83-4.79,21.7,5.33,26.06a31.9,31.9,0,0,0,8,2.37,15.39,15.39,0,0,1-9.91-7.26c-3.05-5.79-2.82-12.08.7-18a28.28,28.28,0,0,1,2.2-3A52.81,52.81,0,0,1,402,358.68Zm33.44,14.14c-.11,1-.27,1.93-.41,2.71a14.63,14.63,0,0,1-3.95,7.72,12.36,12.36,0,0,0,4-6.93A19.32,19.32,0,0,0,435.48,372.82Zm-19.62-8a11.31,11.31,0,0,0-1.49,2,8.25,8.25,0,0,0-.42,8.56c.67,1.3,3.14,2.68,6,2.68a5.49,5.49,0,0,0,4.84-2.21h-.54c-4.4,0-8.09-3.68-8.51-8.63A10.78,10.78,0,0,1,415.86,364.83Zm13.09.26a10.84,10.84,0,0,0-1.85.16,3.57,3.57,0,0,0-1.41.54,10.33,10.33,0,0,1,3.48-.65,5.93,5.93,0,0,1,2.76.6A7,7,0,0,0,429,365.09ZM427.69,317c-1.61,0-6.07.85-12.61,8.16a36.87,36.87,0,0,0-8.18,15c7.33-2.21,13.46-5,21.13-13.49,2.83-3.1,3.25-6.21,2.49-8A2.81,2.81,0,0,0,427.69,317Z"/><path class="cls-4" d="M401.18,346.76s-.42-12.7,10.35-24.73c18.23-20.43,31-4.2,20.07,7.87s-19.54,13.83-30.42,16.86m24.35,24.1c5.14-1.87,5.75-1,4.8,3.79-2.09,11.13-17,9.77-20.64,2.94-8-15,16.76-30.83,31.36-22.69,25.08,14,5.17,47.28-23.79,48.79-45.43,2.46-51.16-55.83-30.46-81.71,21.75-27.28,46.43-24.42,56.72-19s17.43,23.69-1.87,39.17-42.93,11.4-42.93,11.4-10.91,27.95,6.76,35.56,32.07-.1,34.31-11.91-4.5-18.22-13.55-16.65S420.38,372.82,425.53,370.86Z"/><path class="cls-3" d="M457.6,416.13a27.1,27.1,0,0,1-5.12-.5,5,5,0,0,1-3.18-2.16,4.86,4.86,0,0,1-.71-3.79c.1-.56,12.15-56.52,14.49-90.43,2.34-34.31,4.34-76.87,4.37-77.3a5.06,5.06,0,0,1,3.69-4.61l22.92-5.86a13.76,13.76,0,0,1,3.71-.48,10,10,0,0,1,7.57,3.09c2,2.1,2.73,5,2.43,8.62-.73,7.24-22.65,126-34.15,157.94l-.48,1.26c-1.21,3.54-2.71,7.82-6.16,10.87C465,415,461.81,416.13,457.6,416.13Zm19.61-170c-.52,11.16-2.23,45.29-4.17,73.82s-10.29,70.65-13.5,86a1,1,0,0,1,.26-.08,6.4,6.4,0,0,1,.49-.42c1.52-1.28,2.5-4.12,3.45-6.85l.47-1.36c11.35-31.4,33-148.4,33.61-155.47a7.22,7.22,0,0,0,0-.81c-.5,0-1.11.11-1.23.11Z"/><path class="cls-4" d="M453.45,410.73s12.24-56.47,14.6-91.19,4.37-77.37,4.37-77.37l22.89-5.88s8.26-2.43,7.46,5.88c-.74,8-22.59,125.44-33.85,156.82-1.3,3.59-2.5,7.87-5.47,10.29-2.41,3-10,1.45-10,1.45"/><path class="cls-3" d="M521.62,413.37a50.11,50.11,0,0,1-18.16-3.48c-12.14-4.6-19.87-14.23-22.39-27.68-4-21.76,6.78-48.26,19.3-59.49a4.71,4.71,0,0,1,5.78-.48c7.55-14.55,21.26-26.16,38.3-26.16a42.26,42.26,0,0,1,17.72,4.08c18.08,8.32,25.9,29.06,20.42,54.1C576.31,382.9,552.83,413.37,521.62,413.37ZM491,361.09a52,52,0,0,0-.56,19.4c1.89,10.13,7.38,17.07,16.39,20.47a40.94,40.94,0,0,0,14.75,2.84c25.24,0,46.07-26.21,51.66-51.62,4.5-20.7-1.13-36.87-15.09-43.28a32.75,32.75,0,0,0-13.74-3.33c-10.32,0-19.4,6.05-25.71,14.57a25.68,25.68,0,0,1,18.7-8.1,32,32,0,0,1,11.38,2.26c11.33,4.36,16.43,16,13.62,31.1A59.84,59.84,0,0,1,548,374c-9.72,10.78-21.92,15.83-33.53,13.82-9.37-1.63-16.05-6-19.91-13.29A31.78,31.78,0,0,1,491,361.09Zm9.57-6.83c-.51,6,.1,11.63,2.36,15.83,2.41,4.51,6.68,7.24,13.09,8.35a20.27,20.27,0,0,0,3.52.25c6.3,0,12.39-2.94,17.64-7.5a25.63,25.63,0,0,1-12.29,3.15,26.3,26.3,0,0,1-5.35-.53C509.5,371.72,502.77,364.57,500.61,354.26Zm9-11.38V343c-.58,5.64-.58,18.91,11.94,21.5a19.31,19.31,0,0,0,3.39.36c10,0,17.77-9.66,19.94-18.81.71-2.89,2.33-12.6-5.56-16.59a11,11,0,0,0-4.82-1.15,10.6,10.6,0,0,0-6.84,2.5,9.21,9.21,0,0,1,7.73-.29c5.71,2.29,8.62,8.49,7.29,15.42s-7.26,14.54-17,14.54a22.72,22.72,0,0,1-2.67-.16C514.87,359.11,509.78,352.37,509.6,342.88Zm11.28,5.93a5.39,5.39,0,0,0,3.56,2,7.47,7.47,0,0,0,7.12-2.85,9.28,9.28,0,0,1-5.78,1.68h-.61A14.34,14.34,0,0,1,520.88,348.81Z"/><path class="cls-4" d="M503.57,326.22c-7.48,16.75-17.38,52,11.65,56.94,32.88,5.47,59.06-53.94,31.86-64.39-30.46-11.78-42.79,33.92-23.35,36.77,13.74,2,19.15-16.92,9.87-20.59-2.91-1.22-5.81.77-5.52,2.94.41,3.46,3.48,7.18-2.78,7s-9.3-6.29-4.1-14,13.87-9,20.25-5.72c19.81,10,3.48,49.1-20.87,44-35.61-7.47-6.78-85.95,39.6-64.63,46,21.13,2.94,123.12-55,100.93-33.19-12.73-19.28-63.36-1.61-79.23"/><path class="cls-5" d="M579.14,450.54h0A23.64,23.64,0,0,1,563.62,445c-9.06-7.59-12-18.2-8.06-29.07,5.2-14.36,20.69-25.54,35.3-25.54a25.08,25.08,0,0,1,15.14,4.9c8.34,6.12,11.39,14.74,8.49,23.56a24.79,24.79,0,0,1-3.52,6.71,5.76,5.76,0,0,1,0,3.58C607.62,439.26,593.28,450.54,579.14,450.54Zm-4.63-42.22a27.81,27.81,0,0,0-8.35,11.39c-2.3,6.42-.73,12,4.73,16.61a15.93,15.93,0,0,0,1.53,1.1c-.43-.47-.81-.88-1.21-1.37-4.62-5.61-5.25-13.08-1.76-20.37A29.23,29.23,0,0,1,574.51,408.32Z"/><path class="cls-6" d="M605.61,427.35c-6.26,6.07-20.79,16.48-30,5.12-10.41-12.76,11.93-34.23,23.34-24.73,12.82,10.71-6.15,24-12.14,16.35-4.19-5.43,3.58-11,7.57-7.78,1.27,1,1,2.57-.11,2.83-1.79.41-4.27-.22-2.72,2.36s5.26,2.84,7.69-.74,1-7.39-2.05-9.44c-9.47-6.57-24.34,7.18-16.15,16.49,12,13.6,42.81-12.34,21.64-28-21-15.54-59.75,20.48-35.41,40.81,13.93,11.72,35-3.08,38.35-13.27"/><path class="cls-5" d="M209.34,625.83c-18.26,0-35.71-9.65-47.86-26.43-15.83-21.84-17.34-50.94-4.39-84,19.65-50.31,70.07-99.57,110.09-107.62,11.88-2.36,20.33-.49,25.35,5.46,5,6.1,4.5,14.35,3.71,18.7-.5,2.62-2.37,5.32-7.72,12.72-6.19,8.62-16.6,22.94-17.73,31.46-.55,4.41.34,5.74.52,5.89.41.46,1.57.73,3.17.73a34.73,34.73,0,0,0,6.14-.73c3.27-.71,5.17-3.9,8.73-10.4,1.19-2.17,2.52-4.63,4.1-7.15,1.81-3,3.71-6.94,5.89-11.5,5.14-10.72,11.5-24.12,22.42-36.67,9.14-10.49,23.31-16.8,37.88-16.8,11.81,0,22.26,4.35,28.68,12.08s7.63,18.59,2.88,28.72c-5,10.67-14.89,17.55-25.21,17.55a24.28,24.28,0,0,1-4.86-.49c-9.23-2-14.39-6.77-16.77-12.06-3.89,8.92-8.15,21.54-12.51,39.28-8.35,34.26-2.21,64.51,18.31,89.89,3.67,4.52,8,6.55,11.78,8.34,5.05,2.37,11.87,5.68,10.46,14.6-.8,4.93-8,19.37-23.06,19.37-9.48,0-19.7-6-30.39-17.85-15-16.58-20.07-43.55-15.09-80.21A294.12,294.12,0,0,1,323.77,447c1.6-3.59,1.64-6,1.46-7.12a15.36,15.36,0,0,0-4.09,5.36c-.67,1.26-2.27,5.16-4.05,9.61-4.5,11.18-11.24,28.05-18.18,40.28a35.55,35.55,0,0,1-30.72,18.12c-8.57,0-15.93-3.36-20.23-9.29-3.2-4.32-6.13-11.87-2.36-23.63,2.89-8.89,8.07-18.65,12.21-26.5,2.78-5.29,5.43-10.24,6.37-13.05.6-1.84.49-2.9.22-3.26s-1.47-.89-3.31-.89a19.73,19.73,0,0,0-8.88,2.61c-27,14.66-63.45,72.61-67.43,119.3a34.16,34.16,0,0,0-.12,4.09,33.13,33.13,0,0,1,4.39-8.86c7.62-10.84,18.42-16.78,30.4-16.78,14.59,0,28.18,8.78,34.66,22.27,7.35,15.45,3.94,33.78-9.4,50.29C236.32,619.9,223.43,625.83,209.34,625.83Zm67-207.63a32.93,32.93,0,0,0-7,.72c-36.08,7.26-83.63,54.26-101.73,100.59-8,20.44-14,49.79,3,73.25,10,13.79,24,21.72,38.63,21.72A34.16,34.16,0,0,0,233.43,605a36.84,36.84,0,0,1-21.59,8.44c-9.1.44-17.29-3.19-23.89-10.35-11-12.07-15.68-32-14.53-45.65,3.58-42,37.12-108.59,73.39-128.31a30,30,0,0,1,14.28-4c5.47,0,9.89,2,12.53,5.56,1.76,2.47,3.42,6.67,1.55,12.92,1.42-2,2.78-3.88,4.1-5.72,2.31-3.16,5.12-7,5.81-8.41.65-3.89.17-7.31-1.29-9S280,418.2,276.39,418.2Zm40.66,90.87c-5.74,31.09-5.79,64.34,10.33,82.2,10.5,11.67,17.76,14.06,22,14.06,7.83,0,11.56-8.54,11.84-9.8,0,0,0-.17,0-.21a22,22,0,0,0-4.14-2.26c-4.41-2.1-10.44-5-15.76-11.56A106.67,106.67,0,0,1,317.05,509.07Zm-97.6,39.29c-5.79,0-14.13,2.06-21.07,11.93A21.35,21.35,0,0,0,197,582.51c3.38,6.52,9.43,10.18,15.41,9.17h-.34c-5.49,0-9.84-3.09-12-8.49-3.23-8.27-.55-20.72,5.8-26.6a21.54,21.54,0,0,1,14.82-5.94,22.88,22.88,0,0,1,18.75,9.89c5.25,7.89,7.19,16.65,5.65,25a29.07,29.07,0,0,0-1.35-21.33C239.29,554.71,229.53,548.36,219.45,548.36Zm-3.27,22.95a7.61,7.61,0,0,1,5.73,3.45,11,11,0,0,1,1.13,10.1,5.54,5.54,0,0,1-.29.65,16.06,16.06,0,0,0,3.41-7.88c.27-2.58-.2-6-4-7.58a11.3,11.3,0,0,0-3.57-.84,1.77,1.77,0,0,0-1.82.9A3.31,3.31,0,0,0,216.18,571.31Zm43.16-95.08c-1.1,2.54-2.1,5.09-2.87,7.47-1.28,4.05-2.21,9.61.69,13.54,2.15,3,6.15,4.68,11,4.68a24.59,24.59,0,0,0,19.7-10.66,17,17,0,0,1-5.05,1.85,41,41,0,0,1-8.36,1c-5.1,0-9-1.62-11.74-4.62C260,486.37,258.87,481.92,259.34,476.23Zm95.25-35.92c1.22,2.78,4.32,4.89,8.93,5.82,6.57,1.43,13.87-3.2,17.39-10.69,1.36-2.91,3.94-10.31-1.34-16.62-4.23-5.08-11.48-8-19.93-8-11.18,0-22.38,5-29.26,12.93-1.29,1.42-2.49,2.88-3.62,4.3a10.4,10.4,0,0,1,7.73,4.73,12.38,12.38,0,0,1,1.5,3.31c7.63-15.82,16-23.84,24.91-23.84a12.36,12.36,0,0,1,3.61.51,16.91,16.91,0,0,1,12.66,18.55c-1,7.14-6.42,12-13.54,12-.64,0-1.26-.07-1.95-.12A13,13,0,0,1,354.59,440.31Z"/><path class="cls-6" d="M211,578.08c2.38,3.79,3.7-3.66,6.2-.05a5,5,0,0,1-2.74,7.68c-13,2.94-12-18.06-4.64-24.89,8.41-7.84,20.11-4.28,24.92,2.92,14,20.76-2.29,43.09-23.17,44-23.71,1.15-34-31.62-32.48-49.74,3.43-40,35.93-105.1,70.44-123.85,12-6.53,23.79-3.2,20.07,8.28-2.6,7.93-13.93,25.11-18.56,39.52-9.57,29.68,29.37,34.12,42.93,10.31,9.76-17.19,19.53-44.84,22-49.77,8.24-15.7,19.6-8.34,13,6.72-12.38,28.06-37.63,110.62-5.84,145.87,29.24,32.36,42.86,6.3,43.62,1.42,1.43-8.94-11.44-6.72-21-18.53s-32.05-43.14-19.4-94.75c13.59-55.65,28-67.34,36.73-65,12.09,3.3,10.95,20.69-.68,19.34-8.12-.89-5.31-8.37-1.05-7.94,2.09.21,1.71,2.51,2.44,2.55,3.44.27,5.33-6.76-.3-8.11-14.75-3.47-24.46,22.64-1.15,27.61,17.81,3.84,34.32-21.26,21.64-36.55s-42.71-12.62-57.87,4.83-21.45,37.2-27.77,47.44-8.69,18.53-16.57,20.12-18.57,2.77-16.58-12.24,24.66-40.09,25.46-44.37,3.15-22.72-22.33-17.62c-59.54,12-146.1,122.13-102.19,182.81,21.73,30,57.59,30.33,74.19,9.87,36.75-45.55-20.74-85.78-46.59-49-12.76,18.12,1.61,43.39,19.75,40.25s25.05-26.74,10.87-32.47-15.7,9.62-13.31,13.28"/><path class="cls-5" d="M519.46,620.19a51.07,51.07,0,0,1-8.34-.66c-10.94-2-19-7.06-23.95-15-12.14-19.48-3-51.35,5.77-82.1,6.54-22.73,13.93-48.47,5.29-52.72a32.48,32.48,0,0,0-14.06-3.68c-8.08,0-15,4.57-20.53,13.5-14.55,23.37-14.47,66.4-6.73,82a5.73,5.73,0,0,1-5,8.25c-5.7.11-12.31,1.47-17.12,2.51-2,.37-3.7.74-5,1a5.74,5.74,0,0,1-6.47-4.67c-.2-1.21-.35-2.65-.49-4.15a69.46,69.46,0,0,1-14.6,9.13c-7.24,3.51-18.42,7.57-30.5,7.57-13.19,0-24.34-5.05-32.25-14.76-11.77-14.46-11.61-27.53-9.46-36,3.71-14.18,15.4-25,25.27-29.57-9-4.88-13.21-16.55-10.29-28.48,3.52-14.32,17.45-24.42,33.82-24.42a35.32,35.32,0,0,1,20.91,6.63c19.05,13.93,23.84,36.81,24.42,61.29,2.13-21.11-.5-52.69-2.67-63.28a5.73,5.73,0,0,1,3.36-6.43c1.26-.57,3.14-1.16,5.78-2,4.24-1.37,10-3.13,16.33-5.72a5.62,5.62,0,0,1,5.31.53,5.69,5.69,0,0,1,2.51,4.71,54,54,0,0,1-.73,6.83,63,63,0,0,1,36.54-11.71,66.7,66.7,0,0,1,14.26,1.58c11.3,2.41,19.28,8.19,23.73,17.17,9.56,19.34-.73,46.86-7.71,61.61-1.48,3.1-3.84,7.25-6.52,12C515.77,539,509.7,549.56,506,559c4.62-4.2,11.61-7.09,21.55-7.15,15.7,0,27,13.19,27,31.25a40.15,40.15,0,0,1-8.5,25C539.51,616.06,530.34,620.19,519.46,620.19ZM493.24,588a27.37,27.37,0,0,0,3.59,10.55c3.23,5.16,8.55,8.36,16.29,9.79,10.36,1.83,18.59-.65,24-7.37a24.35,24.35,0,0,0,3.76-6.45c-4.08,6.71-10.91,11.22-15.74,12.35a26.44,26.44,0,0,1-5.77.62,27,27,0,0,1-19.48-8.08A30.13,30.13,0,0,1,493.24,588ZM379,508.76a33.21,33.21,0,0,0-11.92,1.94c-6.12,2.46-17,10.77-20.1,22.59-2.19,8.61.22,17.32,7.26,25.93,5.74,7.11,13.63,10.62,23.42,10.62,15.84,0,32.05-9.13,38.08-14.24-7.25,4.36-16.49,8.32-26.26,8.32a33.9,33.9,0,0,1-22.75-8.69c-8.62-7.51-11.57-17.12-8.08-26.51,3.73-10,14.07-17.55,26.34-19.6A44.94,44.94,0,0,0,379,508.76Zm54.82,39a5.86,5.86,0,0,1,.14,1.9,105.68,105.68,0,0,0-.05,11.22c2.91-.55,6.3-1.24,9.89-1.72-2.84-9.56-4-22.07-3.39-35.08a45.79,45.79,0,0,1-3.61,12.39l-.06-.06c-1.09,2.38-3.45,5-5.92,7.41A6.1,6.1,0,0,1,433.86,547.72Zm-41.7-27.78c-11.71,0-20.49,6.56-22.81,12.82-2.26,6,1.4,10.92,4.85,13.92a22.85,22.85,0,0,0,15.32,5.9c13.07,0,26.37-10.09,33.07-16.52a6,6,0,0,1-2.66-1.79C410,522.34,399.29,519.94,392.16,519.94Zm92-65.23a44.42,44.42,0,0,1,19,4.79c17.23,8.34,9.58,35.12.71,66.11-2.36,8.19-4.81,16.75-6.81,25.15,3.89-8.81,9-17.79,13.31-25.36,2.61-4.55,4.86-8.46,6.13-11.2,10.24-21.58,13.19-40.85,7.83-51.67-2.89-5.78-8.09-9.46-15.91-11.14a57.45,57.45,0,0,0-11.9-1.25c-22.07,0-35.7,13.71-40.16,18.22a5.69,5.69,0,0,1-6.4,1.11,5.58,5.58,0,0,1-3.29-5.56c.24-3.68.9-7.85,1.48-11.61-3,1-5.76,1.93-8.06,2.66-.24.05-.49.16-.7.21,1.63,11.35,3.58,34,2.57,53.52,2.09-13,6-25.58,12-35.18C461.63,461.17,472,454.71,484.17,454.71Zm-75.48,57.14a47.41,47.41,0,0,1,10.09,5.71c-.36-22-4.16-42.47-19.79-53.82a24.07,24.07,0,0,0-14.2-4.42c-9.11,0-20.11,4.93-22.79,15.77-1.32,5.4-.27,10.7,2.43,13.87a13.49,13.49,0,0,1-2.7-6.48,19.25,19.25,0,0,1,4.1-14.5,20.09,20.09,0,0,1,15.92-7.55,22.7,22.7,0,0,1,13.13,4.2c11.82,8.61,15.91,29.52,15.5,35.92a34.92,34.92,0,0,0,0,3.68C410.42,506.9,410.48,509.69,408.69,511.85ZM390.37,498.3a76.76,76.76,0,0,1,8.62,2c0-.09,0-.37,0-.53.12-2.22-.73-7.45-2.61-12.76A20.52,20.52,0,0,1,390.37,498.3Zm-7.69-19.23a10.41,10.41,0,0,1-2.61,12.77,9.78,9.78,0,0,0,5.31-7.82c.13-1.28.13-2.94-.69-3.84A4.12,4.12,0,0,0,382.68,479.07Z"/><path class="cls-6" d="M377.84,473.24c-2.29.74-6.66,3-1.85,6.52s1.08,11.56-5.67,7c-4.38-2.89-3.85-10.57-.08-15.18,5.68-7,15.36-6.57,21.33-2.27,9.26,6.68,13.5,24.89,13.1,30.91s1.45,10.73-3.6,7c-1.78-1.31-21.89-7.41-36.09-1.74s-37.6,29.83-15.09,57.41,65.66,3,72.35-5.83,5.84-8.61,6.09-7.82c-.3,4.63-.3,13.43.59,18.47,4.2-.61,14.23-3.36,22.89-3.55-14.28-28.85-3.77-125,48.9-99.49,30.92,15-53.09,137.66,11.46,149.29,44.17,8,47.27-56.49,15.39-56.33s-26.19,33-12.34,35.57c23.93,4.3,20.7-19.28,11.73-20.76s-10.05,3-7.71,7.36c1.23,2.32,5.93-2.84,5.77,1.21s-7.69,7.68-10.66-1.57,17.23-22.26,23.3-5.61c5.72,15.85-7.9,26.19-13.7,27.45-10.3,2.32-27.86-3-27.1-28.93.47-16.66,19.52-44.39,24.83-55.69,13.7-28.83,19.48-64.06-12.08-70.75s-51.14,12.3-57.26,18.44c.58-7.34,2.73-17.28,2.71-20.7-10.22,4.22-19.2,6.59-22,7.74,2.47,11.93,7.27,64.93-1.29,82.6,0,2-34.89,39.84-61.21,17s22.47-57.61,53.8-20.27c.77-24.94-.12-55.67-22-71.53-15.34-11.2-41.08-4.75-45.86,14.65-2.36,9.62,1,18.66,7.67,22.17,12.34,6.57,25.48.9,26.85-11.25s-10.88-12-13.16-11.45"/><path class="cls-5" d="M565.86,586a44.51,44.51,0,0,1-6-.45,5.62,5.62,0,0,1-4.82-5.41c-.06-.92-.64-22.3,2.94-53.43,3.47-30.47,4.54-68.39,4.54-68.77a5.77,5.77,0,0,1,4.17-5.34L587,447a15.88,15.88,0,0,1,3.69-.46,9.87,9.87,0,0,1,7.77,3.19c1.32,1.59,2.79,4.35,2.1,8.88-.19,1.21-.47,3.46-.89,6.41-3,21.54-11.15,78.63-17.65,105.7l-.13.44c-.9,3.73-2,8.27-5.65,11.51C573.42,585.61,569,586,565.86,586Zm7.95-123.54c-.39,10.82-1.66,40.6-4.49,65.5a430.06,430.06,0,0,0-2.88,46.65,17.61,17.61,0,0,0,2-.21c.06-.1.11-.1.18-.15,1-.9,1.61-3.42,2.18-5.63l.11-.53c6.39-26.48,14.42-83.2,17.43-104.57.33-2.21.59-3.94.8-5.26Z"/><path class="cls-6" d="M560.76,579.87s-.64-21.47,2.91-52.52,4.6-69.24,4.6-69.24l20.21-5.61s7.51-2.06,6.45,5.3c-1.49,10.14-11.12,81.05-18.49,111.61-.81,3.31-1.58,7-4.21,9.21-2.17,2.67-11.47,1.25-11.47,1.25"/><path class="cls-5" d="M630.78,583.56c-12.5,0-22.88-4.38-30.86-12.87C588,558,587.71,545.31,589.56,536.87c3.08-13.88,14-25.7,24-31.11a6.8,6.8,0,0,0-.74-.53c-7.56-6.35-10.5-17.44-7.72-28.89,3.54-14.39,17.43-24.47,33.8-24.47a35.34,35.34,0,0,1,20.93,6.66c22.91,16.61,25.25,46.45,24.31,76.21a5.65,5.65,0,0,1-3.79,5.21,5.76,5.76,0,0,1-6.23-1.74c-10-11.87-20.65-14.38-27.83-14.38-11.67,0-20.43,6.61-22.77,12.88-2.29,6,1.38,10.85,4.82,13.86a23.59,23.59,0,0,0,16.16,6.08c15.88,0,35-13,53.52-25.46,14.39-9.83,28-19.1,40.5-22.61a54.27,54.27,0,0,1,14.17-2c22.62,0,33.36,17,33.76,32.7.39,17.29-11.6,35.47-35.34,36.68h-1.46c-16.27,0-25.66-13-26.19-25.17a23.61,23.61,0,0,1,4.82-15.53c-11,4.14-26.54,12.86-48.34,30.21C673.62,570.41,652.42,583.56,630.78,583.56Zm2-70.81a32.15,32.15,0,0,0-11.5,1.88c-6.73,2.74-17.91,12.35-20.64,24.74-1.84,8.3.69,16.23,7.54,23.54,5.85,6.18,13.21,9.2,22.56,9.2,7.77,0,15.86-2.16,23-5.05a48.46,48.46,0,0,1-9.27,1,34.86,34.86,0,0,1-23.62-8.87c-8.59-7.51-11.55-17.13-8.06-26.42,3.73-10,13.9-17.43,26-19.65A47.36,47.36,0,0,0,632.82,512.75ZM735,548a8.39,8.39,0,0,0-.11,2.2c.31,7.19,6,14.82,15.77,14.33,12-.61,24.84-8.73,24.45-25.06-.28-10.7-7.27-21.59-22.37-21.59a40.19,40.19,0,0,0-11.11,1.74,39,39,0,0,0-4.34,1.47c10.42-1.58,18.72.64,24.7,6.64,6.34,6.22,8.67,15.31,5.91,23.15a16,16,0,0,1-13.42,11A19.07,19.07,0,0,1,752,562c-10.25,0-16.28-6.73-17-13.4A3.23,3.23,0,0,1,735,548Zm-72.13-32.26A50.75,50.75,0,0,1,673,521.5c-.37-22-4.15-42.49-19.74-53.83a24.48,24.48,0,0,0-14.27-4.36c-9.12,0-20.09,4.9-22.71,15.76-1.79,7.2-.27,13.87,4,17.38,1.13.95,3.57,1.95,7.18,1.95,4.4,0,12.12-1.78,13-8.56.35-2.47,0-4.3-.92-5.4a5,5,0,0,0-2.54-1.36,10.34,10.34,0,0,1,.65,8,9.61,9.61,0,0,1-9.22,6.73,12.6,12.6,0,0,1-7-2.36,12.81,12.81,0,0,1-5.42-8.93,19.45,19.45,0,0,1,4.11-14.6,20.25,20.25,0,0,1,16-7.52,22.71,22.71,0,0,1,13.12,4.24c12.08,8.8,15.31,30.44,15.48,35.32.05,1.1.12,2.12.2,3,.26,3.07.57,6.21-1.74,8.68A.2.2,0,0,1,662.86,515.74Zm-16.8-13c2.67.51,5.15,1,7.11,1.62v-.06a50,50,0,0,0-2-10.61A19.87,19.87,0,0,1,646.06,502.72Z"/><path class="cls-6" d="M632,477.19c-2.26.67-6.57,3-1.82,6.51s1.11,11.55-5.66,7c-4.36-2.93-3.86-10.54-.08-15.23,5.67-7,15.38-6.56,21.33-2.25,9.25,6.73,12.94,25,13.1,30.88s1.94,9.89-3.6,7c-2-1-21.9-7.35-36-1.73S580.79,542,604,566.79s63.71,1.1,72.38-5.85c22-17.41,63.75-46.88,81.58-29.24,9.08,9,5.81,23.49-4.17,24.54-7.65.78-12.65-3.64-13.14-8.24-.61-5.74,4.43-8.75,8.37-8.53,3.62.21,4.57,4.89.12,4.95-1.3,0-2.36-.48-2.85,1.53-.74,3,1.09,6.41,5.83,6.5,8.13.13,9.6-8.57,7.14-13.6-2.61-5.36-9.08-7-12.62-6.71-27,2.35-20.51,39.26,4.21,38.07,44-2.16,38.72-70-10.81-56.09-33.94,9.55-83.05,68.8-115.42,40.76-26.34-22.86,22.53-57.69,53.86-20.25.73-25-.16-55.72-21.95-71.58-15.4-11.13-41.13-4.73-45.89,14.65-2.34,9.62.09,18.33,5.86,23.16,7.43,6.22,27.67,3.79,29.43-10.29s-11.68-14-14-13.38"/><path class="cls-5" d="M151.74,419.83c-16.85,0-33.28-7.46-48.9-22C83.16,379.43,74.31,354,77.91,326.14c5-39.2,32.88-76.93,72.65-98.56,20.82-11.3,39.52-17,55.59-17,23.33,0,34.67,11.71,39.35,18.74,7.8,11.65,8.76,24.92,2.68,36.37-7.05,13.16-22,21.2-39,20.78-10.57-.26-19.12-4.53-24.11-12.14a27.16,27.16,0,0,1-2.32-25,29.69,29.69,0,0,1,7.52-10.84c-12.81,4.8-25.55,13.71-32.86,20.41-16,14.7-51.7,53.58-37,96.65,5.57,16.32,19.18,33.75,40.76,33.75h.38a26.44,26.44,0,0,1-15.88-13c-4.82-9-4.21-19.19,1.65-28.21a37.54,37.54,0,0,1,31.34-17.17,31.67,31.67,0,0,1,30.18,20.76c5.16,13.48,3.13,34.5-18.08,52.94C179.52,414.42,165.67,419.83,151.74,419.83ZM206.15,222c-14.15,0-31,5.29-50.19,15.65-36.06,19.6-62.3,54.88-66.78,90-2.18,17.07-.24,41.66,21.41,61.88,13.45,12.56,27.28,19,41.15,19,11.19,0,22.38-4.41,31.56-12.39a53.71,53.71,0,0,0,13.57-17.69,1.87,1.87,0,0,0-.2.4c-2.4,4.42-11.54,18.93-28.83,21.38a40.31,40.31,0,0,1-6.68.53c-18.12,0-41.15-10.92-51.57-41.48-16.79-49.44,22.48-92.51,40.17-108.73,10.83-9.87,35-26.7,56.86-26.7,12,0,21.74,5.21,28.22,15a21.2,21.2,0,0,1,1,22.14,28.11,28.11,0,0,1-16.07,13c8.14-2.08,14.78-6.94,18.39-13.6,4.09-7.71,3.35-16.52-2.11-24.67C232.62,230.51,224.17,222,206.15,222Zm-27.5,120.28a26.65,26.65,0,0,0-21.84,12.09c-4.79,7.35-2.78,13.49-1.11,16.53,2.62,4.89,7.57,8.15,12.22,7.78,4-.2,6.83-1.41,7.92-3.21a4.65,4.65,0,0,0,.48-3.67,14.65,14.65,0,0,1-5.86,1.31,10.17,10.17,0,0,1-10.11-8,14.66,14.66,0,0,1,7.76-16A23.83,23.83,0,0,1,179,346.35a20.38,20.38,0,0,1,17.6,10,22,22,0,0,1,2.76,14.39,27.05,27.05,0,0,0-1.13-15.06A20.29,20.29,0,0,0,178.65,342.24Zm-1.33,17.55c2.33,0,6.67.92,9.35,7.2a14.89,14.89,0,0,1,1.06,3.71,10.56,10.56,0,0,0-.93-8.48c-2.65-4.49-8.07-5.75-13.6-3a3.46,3.46,0,0,0-1.69,2.16,7.8,7.8,0,0,0,1.28-.52A10.18,10.18,0,0,1,177.32,359.79Zm31.16-117c-7.53,0-13,5.3-15.14,10.66a16,16,0,0,0,1.26,14.6c2.9,4.43,8.06,6.81,14.87,7h1.41c-.42,0-.84,0-1.26-.11a17,17,0,0,1-15.35-16.42,13.18,13.18,0,0,1,3.51-9.69,11.4,11.4,0,0,1,8.14-3.36,10.87,10.87,0,0,1,9.8,5.73,9,9,0,0,1,.73,5.57c2.89-.31,4.53-2,4.93-4.92.21-1.53.74-5.75-8.33-8.36A13.63,13.63,0,0,0,208.48,242.82Z"/><path class="cls-6" d="M209.73,257.93c5.49-6.87-9.93-11-9.78.47a11.39,11.39,0,0,0,10.35,10.93c13,1.58,29-13.22,19.75-27.48-18.17-27.82-59.89-2.39-76.45,12.77C130.28,276,100.65,315.2,115,357.31c10.2,29.95,33.62,39.93,52,37.24,12.14-1.79,20.63-11.12,24.67-18.58,7.61-14-5.25-29.69-21-21.81-7.55,3.74-6.77,17.45,4.62,11.83,2.79-1.37,4.77.05,6.14,3.21,2,4.61.9,14.23-13.1,15.17-13.32.85-27.1-16.55-16.24-33.14,12.94-19.75,42.85-20.08,51.46,2.39,6.36,16.73-2.76,34.74-16.48,46.65-18.08,15.78-48.31,23.29-80.35-6.66-48.18-44.95-18.91-125.49,46.58-161,51.19-27.74,77.64-14.81,87.5-.16,15.56,23.24-2.95,48.94-31.44,48.25-19.74-.46-26.25-16.87-21.32-29.31,3.87-9.65,14.64-17,26.65-13.39,7.06,2,13.44,6.35,12.34,14.6-.73,5.68-5.16,11.19-15,9.63-3-.44-4.11-2.07-2.3-4.33"/><path class="cls-5" d="M247.75,405.29a44.8,44.8,0,0,1-29.35-11.15C204.21,382,202,369.09,202.66,360.4c1.05-14.38,10.29-26.93,19.09-33.33a21.42,21.42,0,0,1-8-5.36c-4.87-5.2-7.28-12.65-6.81-21.06,1.21-19.23,19.08-30.74,35.72-30.74a34.31,34.31,0,0,1,15,3.36c17.54,8.46,26.63,24.79,32,43.75-2.47-33,3-85.41,3.31-88.07a10.73,10.73,0,0,1,.28-1.32c2-5.46,12.53-11.08,31.39-16.58a5.71,5.71,0,0,1,7.05,7.17c-8.16,25.89-12.2,58.93-13.8,76a46.06,46.06,0,0,1,20.45-5c16.55,0,34.47,10.81,35.06,41.24.78,40.54-14.3,63.07-44.85,66.9a30.92,30.92,0,0,1-5.06.32c-15.44,0-25.69-8.91-31.47-16.06C283.22,394.2,266,405.29,247.75,405.29Zm-.58-74.69c-5.29.34-12.21,1.56-17.45,4.81-5.6,3.52-14.82,13.6-15.69,25.84-.68,8.84,3.26,17,11.74,24.21a33.21,33.21,0,0,0,22,8.42c13.66,0,32.36-10.25,37.93-24-8.23,7.58-19,14.33-31.08,14.33a34.18,34.18,0,0,1-17.29-4.87c-10.52-6.26-15.06-16.29-12.18-26.75C227.84,342.71,236.4,334.52,247.17,330.6Zm44.34,34.19a5.59,5.59,0,0,1,5.14,3.25c.38.74,9,18.27,26.85,18.27,1.15,0,2.4,0,3.62-.15,15.4-2,35.77-9.88,34.88-55.48-.35-19.11-9-30-23.65-30-7.92,0-16.64,3.37-23.42,9a31.27,31.27,0,0,1,12.65-2.85,29.46,29.46,0,0,1,10.07,1.86c9.35,3.3,15.41,11.39,17.06,22.73,2.35,16.24-5,36.73-16,44.81a26.49,26.49,0,0,1-15.77,5.3c-10.5,0-22.37-6.83-28.1-21.43-1.22,1.47-2.58,3.1-4.09,4.73a2.2,2.2,0,0,0,.52,0Zm-30-25.33c-13.11,0-23.2,8.2-25.41,16.14-1.5,5.49.92,10.34,7,13.89a21.86,21.86,0,0,0,11.48,3.33c13.34,0,26.29-13,33.49-22.48a5.82,5.82,0,0,1-2.15-1.17C278.28,342.82,269.82,339.46,261.5,339.46Zm35.95,1.62a8,8,0,0,1,1.2.11,5.78,5.78,0,0,1,4.47,4.95c1.78,16.48,11.55,24,19.8,24A15.44,15.44,0,0,0,332,367c7-5.11,13.43-20.69,11.48-34-1.05-7.13-4.26-11.76-9.61-13.66a18,18,0,0,0-6.26-1.1c-14.19,0-24.72,17.38-24.84,17.59a5.65,5.65,0,0,1-8.61,1.37c.21,1.47.49,2.94.69,4.47A5.86,5.86,0,0,1,297.45,341.08Zm-26.61-11.93a45.56,45.56,0,0,1,10.9,3.79c-4.25-21.59-11.69-41.06-29-49.42a22.11,22.11,0,0,0-10-2.2c-14.3,0-23.75,10.34-24.32,19.95-.32,5.31,1,9.77,3.67,12.65a10.32,10.32,0,0,0,5.18,3c-.29-.16-.61-.21-.91-.37a13.17,13.17,0,0,1-6.94-7.93,19.16,19.16,0,0,1,1.48-15A20.5,20.5,0,0,1,239.14,283a21.61,21.61,0,0,1,9.67,2.2c13.17,6.25,20.9,26.05,21.63,32.51.16,1.27.43,2.43.63,3.63C271.65,323.9,272.23,326.64,270.84,329.15Zm33.32-97.54c-1,9.35-5.73,59.74-2.9,87.89a46.39,46.39,0,0,1,11.21-8.56,5.88,5.88,0,0,1-3.79-.55,5.71,5.71,0,0,1-3.09-5.38c.1-1.95,2.78-43.76,12.23-79.74C311.39,227.69,306.05,230.16,304.16,231.61Zm-52.52,87.48a68.3,68.3,0,0,1,7.56.41c0-.19-.06-.37-.08-.52-.2-2-1.6-5.94-3.78-10.19a19.11,19.11,0,0,1-3.75,10.3ZM238.94,301a10.43,10.43,0,0,1,2.36,9.22,9.75,9.75,0,0,1-3.18,5.27c.13-.06.23-.15.34-.15,5-2.11,6-6.3,5.37-9.53C243.39,303.53,241.83,300.85,238.94,301Z"/><path class="cls-6" d="M233.54,296.7c-2.12,1-6,4.15-.62,6.68s3.14,11.18-4.34,7.92c-4.83-2.1-5.67-9.66-2.79-14.91,4.31-8,13.92-9.29,20.55-6,10.34,4.94,17.78,22.07,18.46,28s3.32,10.36-2.34,7.52c-1.94-.94-22.84-3.31-35.77,4.74s-31.67,36.12-4.63,59.24,62.78.37,69.45-19.33c0,0,11.45,24.47,36.32,21.27s40.68-19.76,39.9-61.18-36.35-42.24-56.47-25.28c0,0,3.14-51.31,15-88.77,0,0-25.68,7.44-27.66,13,0,0-8.27,77.79-.81,103.49,0,0,15.81-26.9,37.93-19s14.21,47-.4,57.63-35.11.35-37.89-24.91c0,0-27.21,45.39-57.21,27.62s11.82-60.78,49.33-29.57c-3.74-24.67-10.09-54.68-34.44-66.44-17.1-8.24-41.26,2.68-42.46,22.6-1,16,10.63,26.93,28,19.57,16.44-7,8.2-31.29-7.15-23.84"/><path class="cls-5" d="M411.74,404.54c-17.55,0-31.36-8.63-38.92-24.21-9.71-20.28-6.68-49.5,6.93-66.51,16.26-20.26,33.47-24.57,45.08-24.57a40.31,40.31,0,0,1,18.48,4.25,25.58,25.58,0,0,1,13,20.1c.95,10.17-4,20.13-14,28.18-1.16.88-2.31,1.78-3.51,2.57a16,16,0,0,1,2.12,1c11.16,6.26,16.26,16.92,13.53,28.57-3.78,16.34-20.83,29.47-39.67,30.5-1,.07-2,.07-3,.07Zm13.09-104.38c-9.2,0-23,3.59-36.54,20.54-11,13.71-13.53,38.41-5.61,54.83,4,8.26,12.25,18.08,29.06,18.08h0c.82,0,1.63-.05,2.46-.05a31.81,31.81,0,0,0,6.1-.9,38.85,38.85,0,0,1-19.74-3.24c-9.41-4-14.15-13.25-13.3-25.95a62.71,62.71,0,0,1,3.57-16.61,5.33,5.33,0,0,1,2.5-2.82,5.88,5.88,0,0,1-.39-1.86c0-.62-.32-15.06,11.73-28.58,8.49-9.49,15.69-11.53,20.25-11.53a13,13,0,0,1,12.19,7.82c2.62,5.95,1,13.23-4.25,19-6.92,7.54-13.14,11.55-19.25,14.06a48.73,48.73,0,0,0,21.87-9.7c7.14-5.79,10.59-12.2,10-18.65a14.55,14.55,0,0,0-7.33-11.45A28.24,28.24,0,0,0,424.83,300.16Zm-25,54.53c-1.87,6.88-4.32,20.7,5.09,24.69.26.1.53.25.82.36a13.42,13.42,0,0,1-3.59-4.26,18.32,18.32,0,0,1,.69-18.63c.43-.69.91-1.36,1.39-2.07C402.5,354.78,401.05,354.74,399.79,354.69Zm41.26,4.51a23.31,23.31,0,0,1,1.37,14.36,26.72,26.72,0,0,1-1.37,4.57,22.6,22.6,0,0,0,2.76-6.67A13.58,13.58,0,0,0,441.05,359.2Zm-28.74,3.06a1.19,1.19,0,0,0-.12.22c-1.65,2.77-1.81,5.34-.45,7.87.63,1.11,2.86,2.37,5.46,2.37a5.12,5.12,0,0,0,3.31-1c-4.31-.48-7.74-4.25-8.2-9.14ZM424.92,313c-1.18,0-5.57.62-12.12,7.93a36.19,36.19,0,0,0-7.68,13.5c6.72-2.1,12.5-5,19.65-12.88,2.6-2.87,3-5.69,2.36-7.23A2.07,2.07,0,0,0,424.92,313Z"/><path class="cls-6" d="M398.4,342s-.42-12.7,10.35-24.8c18.23-20.44,31-4.1,20.06,7.94S409.3,339,398.4,342m24.35,24.09c5.14-1.88,5.77-1,4.86,3.8-2.14,11.07-17.05,9.76-20.68,3-8-15,16.72-30.87,31.34-22.74,25.1,14,5.18,47.29-23.77,48.87-45.48,2.39-51.19-55.91-30.49-81.8,21.8-27.27,46.43-24.37,56.74-19,10.26,5.58,17.48,23.7-1.85,39.2s-43,11.33-43,11.33-10.86,28.05,6.78,35.61,32.1-.11,34.36-11.91-4.54-18.25-13.61-16.72C414.42,357.48,417.59,368,422.75,366.13Z"/><path class="cls-5" d="M454.8,412.16a27.2,27.2,0,0,1-5.24-.58,5.55,5.55,0,0,1-3.63-2.4,5.7,5.7,0,0,1-.77-4.33c.09-.58,12.12-56.46,14.46-90.39,2.33-34.3,4.3-76.8,4.33-77.21A5.71,5.71,0,0,1,468.2,232l22.91-5.93a19.58,19.58,0,0,1,3.89-.47,10.46,10.46,0,0,1,8.09,3.26c1.4,1.58,3,4.45,2.6,9.18C505,245.26,483,364.09,471.46,396.18l-.43,1.21c-1.21,3.57-2.77,8.06-6.35,11.24C462.52,410.9,459.21,412.16,454.8,412.16ZM475.11,242c-.55,11.64-2.23,45.15-4.17,73.31-1.83,27.24-9.53,66.95-13,83.86a22.8,22.8,0,0,0,2.39-5.51l.47-1.31c11.29-31.41,32.78-147.76,33.56-155.26-.17,0-.29,0-.36.06Z"/><path class="cls-6" d="M450.67,406s12.24-56.41,14.61-91.18,4.37-77.37,4.37-77.37l22.85-5.89s8.3-2.39,7.49,5.89c-.74,8-22.54,125.43-33.86,156.8-1.29,3.64-2.49,7.88-5.43,10.29-2.44,3-10,1.46-10,1.46"/><path class="cls-5" d="M518.84,409.31a50.92,50.92,0,0,1-18.39-3.49c-12.39-4.8-20.27-14.52-22.78-28.23-4.05-21.89,6.82-48.78,19.49-60.14a5.55,5.55,0,0,1,5.95-.89c7.7-14.4,21.48-25.89,38.54-25.89a42.81,42.81,0,0,1,18.06,4.19c18.38,8.47,26.32,29.47,20.74,54.78C574.14,378.58,550.39,409.31,518.84,409.31Zm-30.71-48.1a48,48,0,0,0,.25,14.43c1.83,9.87,7.2,16.66,16,20a41.64,41.64,0,0,0,14.5,2.78c24.89,0,45.49-26,51-51.1,1.69-7.62,5.57-33.25-14.7-42.61a32.34,32.34,0,0,0-13.49-3.13c-7.62,0-14.56,3.35-20.18,8.59a26.31,26.31,0,0,1,13.21-3.55,32.15,32.15,0,0,1,11.57,2.3c11.67,4.47,16.92,16.39,14.08,31.85a61,61,0,0,1-14.6,29c-9.86,10.93-22.33,16-34.16,14-9.58-1.6-16.42-6.16-20.42-13.56A33.13,33.13,0,0,1,488.13,361.21ZM498.4,354a23.84,23.84,0,0,0,2.37,11c2.34,4.37,6.46,6.94,12.6,8,5.62.9,11.3-.66,16.39-3.87a27,27,0,0,1-13.1.57A24,24,0,0,1,498.4,354Zm9.2-7.93c.85,5.46,3.57,11.41,11.29,13a19.22,19.22,0,0,0,3.27.3c9.71,0,17.17-9.39,19.28-18.22.67-2.78,2.24-12.14-5.22-15.86a9.87,9.87,0,0,0-6.4-.89,10.06,10.06,0,0,1,3,.68c6,2.4,9.12,8.94,7.65,16.23S533,356.43,523,356.43a17.72,17.72,0,0,1-2.81-.21A15.58,15.58,0,0,1,507.6,346.07Z"/><path class="cls-6" d="M500.8,321.53c-7.49,16.77-17.41,52,11.67,56.91,32.81,5.51,59.06-53.95,31.86-64.4C513.87,302.31,501.51,348,521,350.81c13.71,2,19.14-16.86,9.85-20.64-2.87-1.16-5.77.88-5.52,3,.41,3.42,3.47,7.15-2.78,7s-9.33-6.34-4.1-14,13.87-9,20.28-5.68c19.76,10,3.44,49-20.91,43.91-35.61-7.41-6.77-85.93,39.63-64.59,45.93,21.15,2.91,123.16-55,100.94-33.18-12.76-19.27-63.44-1.59-79.22"/><path class="cls-7" d="M398.4,342s-.42-12.7,10.35-24.8c18.23-20.44,31-4.1,20.06,7.94S409.3,339,398.4,342M631.33,476.56c-2.28.63-6.6,3-1.81,6.52s1.1,11.54-5.73,7c-4.31-3-3.81-10.56-.06-15.17,5.67-7.1,15.39-6.62,21.33-2.33,9.25,6.73,12.92,25,13.1,30.91s1.93,9.87-3.59,7c-2-1-21.9-7.42-36.08-1.68-14.12,5.56-38.38,32.61-15.14,57.29,23.28,24.85,63.71,1.16,72.38-5.76,22-17.46,63.8-46.92,81.58-29.25,9.08,9,5.87,23.41-4.14,24.45-7.68.89-12.68-3.56-13.15-8.19-.63-5.77,4.43-8.77,8.37-8.49,3.61.2,4.57,4.87.11,4.87-1.31.1-2.32-.42-2.86,1.63-.75,3,1.09,6.36,5.83,6.46,8.16.05,9.61-8.57,7.15-13.61-2.62-5.36-9.07-7-12.62-6.78-27,2.42-20.52,39.37,4.22,38.15,43.95-2.15,38.67-70-10.8-56-34,9.51-83.09,68.75-115.45,40.69-26.34-22.79,22.51-57.66,53.84-20.27.75-25-.12-55.56-22-71.48C640.5,451.29,614.75,457.64,610,477c-2.3,9.56.11,18.34,5.89,23.18,7.45,6.12,27.69,3.81,29.44-10.32S633.6,475.87,631.33,476.56Zm-130.53-155c-7.49,16.77-17.41,52,11.67,56.91,32.81,5.51,59.06-53.95,31.86-64.4C513.87,302.31,501.51,348,521,350.81c13.71,2,19.14-16.86,9.85-20.64-2.89-1.16-5.77.88-5.52,3,.41,3.42,3.47,7.15-2.78,7s-9.33-6.34-4.1-14,13.87-9,20.28-5.68c19.76,10,3.44,49-20.91,43.91-35.61-7.41-6.77-85.93,39.63-64.59,45.93,21.15,2.91,123.16-55,100.94C469.21,388,483.12,337.31,500.8,321.53ZM450.67,406s12.24-56.41,14.61-91.18,4.37-77.37,4.37-77.37l22.85-5.89s8.3-2.39,7.49,5.89c-.74,8-22.54,125.43-33.86,156.8-1.29,3.64-2.49,7.88-5.43,10.29C458.26,407.59,450.67,406,450.67,406Zm-27.92-39.87c5.14-1.88,5.77-1,4.86,3.8-2.14,11.07-17.05,9.76-20.68,3-8-15,16.72-30.87,31.34-22.74,25.1,14,5.18,47.29-23.77,48.87-45.48,2.39-51.19-55.91-30.49-81.8,21.8-27.27,46.43-24.37,56.74-19,10.26,5.58,17.48,23.7-1.85,39.2s-43,11.33-43,11.33-10.86,28.05,6.78,35.61,32.1-.11,34.36-11.91-4.54-18.25-13.61-16.72C414.42,357.48,417.59,368,422.75,366.13ZM233.54,296.7c-2.12,1-6,4.15-.62,6.72s3.14,11.14-4.34,7.88c-4.83-2.1-5.67-9.66-2.79-14.91,4.31-8,13.92-9.29,20.55-6,10.34,4.94,17.78,22.07,18.46,28s3.32,10.36-2.34,7.52c-1.94-.94-22.84-3.31-35.77,4.74s-31.67,36.12-4.63,59.24,62.78.37,69.45-19.33c0,0,11.45,24.47,36.32,21.27s40.68-19.76,39.9-61.18-36.35-42.24-56.47-25.28c0,0,3.14-51.31,15-88.77,0,0-25.68,7.44-27.66,13,0,0-8.27,77.79-.81,103.49,0,0,15.81-26.9,37.93-19s14.21,47-.4,57.63-35.11.35-37.89-24.91c0,0-27.21,45.39-57.21,27.62s11.82-60.78,49.33-29.57c-3.74-24.67-10.09-54.68-34.44-66.44-17.1-8.24-41.26,2.68-42.46,22.6-1,16,10.63,26.93,28,19.57C257.13,313.58,248.89,289.25,233.54,296.7Zm327.3,283.4s-1.71-11,1.84-54c3.65-31,4.91-68.7,4.91-68.7l20.48-5.26s7.41-2.15,6.73,5.26c-.69,7.09-9,64.77-15.35,99.43-1.51,8.15-4.45,19.76-7.07,21.9C570.16,581.44,560.84,580.1,560.84,580.1ZM377.13,472.61c-2.29.63-6.62,3-1.79,6.51s1.05,11.55-5.73,6.94c-4.31-2.95-3.83-10.57-.05-15.19,5.69-7,15.39-6.56,21.3-2.27,9.28,6.75,13.55,24.93,13.16,30.9s1.42,10.79-3.63,7c-1.76-1.36-21.89-7.38-36.05-1.71s-37.58,29.86-15.17,57.39,65.67,3.07,72.42-5.82,5.8-8.62,6.07-7.83c-.32,4.62-.32,13.51.58,18.45,4.22-.63,14.23-3.32,22.89-3.53-14.27-28.8-3.78-125,48.89-99.47,30.9,15-53.08,137.71,11.44,149.28,44.26,8,47.3-56.43,15.42-56.31s-26.21,33-12.35,35.55c23.9,4.35,20.7-19.22,11.75-20.74s-10.07,2.93-7.73,7.3c1.22,2.35,6-2.74,5.75,1.18s-7.68,7.74-10.6-1.51,17.22-22.26,23.27-5.62c5.73,15.87-7.91,26.22-13.71,27.49-10.31,2.3-27.84-3.06-27.12-29C496.67,555,515.64,527.25,521,516c13.71-28.85,19.49-64-12-70.75s-51.18,12.28-57.28,18.49c.53-7.42,2.72-17.34,2.72-20.76-10.25,4.15-19.24,6.58-22.08,7.72,2.48,11.94,7.29,64.93-1.24,82.69,0,1.93-34.94,39.75-61.29,16.86s22.51-57.64,53.82-20.27c.78-24.91-.13-55.63-22-71.4-15.34-11.19-41.07-4.82-45.84,14.5-2.34,9.61,1,18.64,7.65,22.17,12.36,6.62,25.48.88,26.88-11.24S379.44,471.94,377.13,472.61ZM210.32,577.45c2.38,3.69,3.71-3.72,6.23-.1,2,2.87.37,7-2.76,7.62-12.94,3-12-18-4.64-24.9,8.39-7.83,20.12-4.15,24.95,3,14,20.79-2.26,43.42-23.22,42.86-23.09-.69-34.67-22.69-32.46-48.58,3.42-40,35.92-105.12,70.43-123.88,12-6.49,23.83-3.14,20,8.31-2.55,7.88-13.86,25.05-18.52,39.54-9.53,29.69,30,35.14,44.72,12.1,11-17.24,20.76-44.28,23.3-49.17,8.17-15.71,13.58-10.78,6.94,4.36-12.38,28-34.64,110.57-2.82,145.75,29.22,32.42,43.45,6.35,44.19,1.43,1.41-8.86-12-6.66-21.64-18.56s-32-43.11-19.39-94.69c13.61-55.62,28-67.34,36.72-65,12.07,3.3,11,20.76-.69,19.33-8.14-.94-5.3-8.35-1.05-7.94,2.08.27,1.74,2.54,2.42,2.59,3.46.26,5.37-6.78-.27-8.14C348,419.92,338.31,446,361.65,451c17.73,3.85,34.3-21.22,21.62-36.56s-42.7-12.6-57.9,4.84S304,456.48,297.61,466.72s-8.68,18.55-16.55,20.18-18.55,2.68-16.6-12.29,24.69-40.09,25.46-44.38,3.17-22.69-22.27-17.59c-59.55,12-146.11,122.1-102.28,182.78,21.77,30,57.64,30.38,74.22,9.82,36.8-45.44-20.72-85.66-46.58-48.9-12.76,18.16,1.59,43.38,19.76,40.24s25.06-26.74,10.88-32.46S208,573.73,210.32,577.45ZM605,426.65c-6.27,6.15-20.82,16.44-30,5.15-10.41-12.77,11.88-34.24,23.37-24.7,12.8,10.67-6.2,23.95-12.16,16.3-4.2-5.41,3.57-11,7.56-7.77,1.24,1,1,2.57-.1,2.82-1.74.47-4.28-.2-2.71,2.37s5.22,2.84,7.68-.73,1-7.36-2-9.52c-9.46-6.51-24.36,7.25-16.15,16.51,12,13.66,42.8-12.29,21.63-28-21-15.48-59.73,20.54-35.4,40.88C580.55,451.65,601.53,436.89,605,426.65ZM209,257.31c5.48-6.87-9.92-11-9.72.44a11.24,11.24,0,0,0,10.3,10.86c13,1.62,29-13.18,19.75-27.38-18.2-27.88-59.9-2.47-76.46,12.78C129.6,275.37,100,314.52,114.32,356.64c10.18,29.86,33.6,39.92,52,37.24,12.15-1.78,20.63-11.13,24.66-18.56,7.63-14-5.25-29.72-21-21.86-7.53,3.75-6.78,17.46,4.69,11.84,2.75-1.36,4.7.06,6.11,3.21,2,4.56.86,14.24-13.19,15.18-13.24.84-27.07-16.57-16.2-33.14,12.95-19.82,42.86-20.12,51.47,2.41,6.36,16.75-2.75,34.73-16.49,46.69-18,15.72-48.29,23.23-80.34-6.66-48.14-45-18.94-125.6,46.6-161,51.18-27.79,77.63-14.82,87.48-.22,15.59,23.34-3,49-31.47,48.34-19.67-.43-26.2-16.86-21.25-29.37,3.81-9.62,14.61-16.9,26.61-13.41,7,2.08,13.45,6.43,12.34,14.68-.73,5.67-5.15,11.19-15,9.71C208.33,261.18,207.26,259.51,209,257.31Z"/></svg>